<svg width="908" height="86" viewBox="0 0 908 86" fill="none" xmlns="http://www.w3.org/2000/svg">
<path d="M637 24L817 24" stroke="#7CCD98" stroke-width="3" stroke-linecap="round"/>
<path d="M363 27L543 27" stroke="#7CCD98" stroke-width="3" stroke-linecap="round"/>
<path d="M92 24L272 24" stroke="#D9D9D9" stroke-width="3" stroke-linecap="round"/>
<path d="M207 24L272 24" stroke="#621E8A" stroke-width="3" stroke-linecap="round"/>
<circle cx="856" cy="24" r="24" fill="#7CCD98"/>
<circle cx="590" cy="24" r="23.5" fill="#7CCD98" stroke="#D9D9D9"/>
<circle cx="316" cy="27" r="24" fill="#621E8A"/>
<circle cx="56" cy="24" r="23.5" stroke="#D9D9D9"/>
<path d="M310.32 24.112C310.4 22.512 310.96 21.28 312 20.416C313.056 19.536 314.44 19.096 316.152 19.096C317.32 19.096 318.32 19.304 319.152 19.72C319.984 20.12 320.608 20.672 321.024 21.376C321.456 22.064 321.672 22.848 321.672 23.728C321.672 24.736 321.408 25.592 320.88 26.296C320.368 26.984 319.752 27.448 319.032 27.688V27.784C319.96 28.072 320.68 28.584 321.192 29.32C321.72 30.056 321.984 31 321.984 32.152C321.984 33.112 321.76 33.968 321.312 34.72C320.88 35.472 320.232 36.064 319.368 36.496C318.52 36.912 317.496 37.12 316.296 37.12C314.488 37.12 313.016 36.664 311.88 35.752C310.744 34.84 310.144 33.496 310.08 31.72H313.344C313.376 32.504 313.64 33.136 314.136 33.616C314.648 34.08 315.344 34.312 316.224 34.312C317.04 34.312 317.664 34.088 318.096 33.64C318.544 33.176 318.768 32.584 318.768 31.864C318.768 30.904 318.464 30.216 317.856 29.8C317.248 29.384 316.304 29.176 315.024 29.176H314.328V26.416H315.024C317.296 26.416 318.432 25.656 318.432 24.136C318.432 23.448 318.224 22.912 317.808 22.528C317.408 22.144 316.824 21.952 316.056 21.952C315.304 21.952 314.72 22.16 314.304 22.576C313.904 22.976 313.672 23.488 313.608 24.112H310.32Z" fill="white"/>
<path d="M49.128 30.592V27.952L56.976 16.72H60.888V27.664H63V30.592H60.888V34H57.528V30.592H49.128ZM57.744 20.32L52.824 27.664H57.744V20.32Z" fill="#D9D9D9"/>
<path d="M821.308 81.638L821.066 80.274L824.982 79.526C825.847 79.3647 826.551 79.1227 827.094 78.8C827.651 78.4773 828.077 78.052 828.37 77.524C828.678 76.996 828.898 76.336 829.03 75.544C829.177 74.752 829.265 73.7987 829.294 72.684C829.323 71.5693 829.338 70.2713 829.338 68.79H831.01C831.01 70.374 830.981 71.7747 830.922 72.992C830.863 74.2093 830.731 75.2727 830.526 76.182C830.321 77.0767 829.998 77.832 829.558 78.448C829.133 79.064 828.546 79.5773 827.798 79.988C827.065 80.384 826.133 80.692 825.004 80.912L821.308 81.638ZM825.004 79.658L822.122 68.79H823.816L826.654 79.658H825.004ZM838.892 81V72.706C838.892 72.1633 838.943 71.672 839.046 71.232C839.163 70.792 839.317 70.4253 839.508 70.132H833.348V68.79H842.764V70.132H841.136C840.916 70.4987 840.769 70.924 840.696 71.408C840.637 71.8773 840.608 72.31 840.608 72.706V81H838.892ZM845.693 76.38V74.642V71.364L845.385 68.79H847.079L847.387 71.364V74.642L847.365 76.028L845.693 76.38ZM854.22 81.044L854.396 79.702C855.614 79.966 856.596 79.9367 857.344 79.614C858.092 79.2913 858.635 78.6973 858.972 77.832C859.324 76.9667 859.486 75.852 859.456 74.488C859.442 73.3587 859.288 72.4713 858.994 71.826C858.716 71.1807 858.342 70.726 857.872 70.462C857.418 70.1833 856.897 70.044 856.31 70.044C855.709 70.044 855.203 70.176 854.792 70.44C854.396 70.6893 854.081 71.0193 853.846 71.43C853.612 71.8407 853.443 72.288 853.34 72.772L852.834 71.848C853.098 70.7333 853.575 69.9267 854.264 69.428C854.968 68.9147 855.731 68.658 856.552 68.658C857.183 68.658 857.762 68.7607 858.29 68.966C858.833 69.1567 859.31 69.4793 859.72 69.934C860.131 70.3887 860.454 70.99 860.688 71.738C860.938 72.486 861.07 73.4027 861.084 74.488C861.128 76.1747 860.886 77.5607 860.358 78.646C859.83 79.7313 859.046 80.4867 858.004 80.912C856.978 81.3227 855.716 81.3667 854.22 81.044ZM850.15 81L851.778 72.442L850.084 68.79H851.844L853.406 72.508L851.844 81H850.15ZM867.281 81.308L867.105 80.098C867.706 80.0393 868.168 79.9073 868.491 79.702C868.828 79.482 869.063 79.1887 869.195 78.822C869.327 78.4553 869.393 78.0007 869.393 77.458V68.79H874.783C875.516 68.79 876.154 68.922 876.697 69.186C877.254 69.45 877.687 69.8827 877.995 70.484C878.318 71.0853 878.479 71.8847 878.479 72.882V81H876.785V72.816C876.785 71.8187 876.565 71.122 876.125 70.726C875.7 70.33 875.128 70.132 874.409 70.132H871.087V77.282C871.087 78.1473 870.955 78.866 870.691 79.438C870.427 79.9953 870.016 80.428 869.459 80.736C868.902 81.0293 868.176 81.22 867.281 81.308ZM880.997 81V79.658H884.825V72.31C884.825 71.5767 884.671 71.0487 884.363 70.726C884.07 70.3887 883.652 70.176 883.109 70.088L881.635 69.868L881.877 68.548L883.791 68.834C884.671 68.966 885.346 69.3253 885.815 69.912C886.285 70.484 886.519 71.276 886.519 72.288V81H880.997ZM890.835 81V72.706C890.835 72.1633 890.886 71.672 890.989 71.232C891.106 70.792 891.26 70.4253 891.451 70.132H889.229V68.79H894.773V70.132H893.035C892.815 70.4987 892.676 70.924 892.617 71.408C892.558 71.8773 892.529 72.31 892.529 72.706V81H890.835ZM904.834 81V72.816C904.834 71.8187 904.614 71.122 904.174 70.726C903.749 70.33 903.184 70.132 902.48 70.132H897.31V68.79H902.854C903.588 68.79 904.226 68.922 904.768 69.186C905.326 69.45 905.758 69.8827 906.066 70.484C906.389 71.0853 906.55 71.8847 906.55 72.882V81H904.834ZM897.288 81V75.06L897.53 73.586H899.004V75.06V81H897.288Z" fill="#6A6A6A"/>
<path d="M533.01 81L537.256 70.132H530.414V68.79H538.95V70.22L534.704 81H533.01ZM530.414 70.132V65.226H531.998V70.132H530.414ZM541.669 81V71.364L541.361 68.79H543.055L543.363 71.364V81H541.669ZM548.393 81L552.639 70.132H545.797V68.79H554.333V70.22L550.087 81H548.393ZM545.797 70.132V65.226H547.381V70.132H545.797ZM557.91 81.22L556.568 70.132L558.152 69.274L559.406 79.658C560.007 79.5993 560.587 79.504 561.144 79.372C561.716 79.2253 562.237 79.02 562.706 78.756C563.175 78.4773 563.586 78.1253 563.938 77.7C564.29 77.2747 564.554 76.754 564.73 76.138C564.906 75.5073 564.972 74.7593 564.928 73.894V73.366C564.928 72.75 564.825 72.2 564.62 71.716C564.429 71.232 564.136 70.8507 563.74 70.572C563.344 70.2787 562.86 70.132 562.288 70.132H556.568L556.414 68.79H562.42C563.74 68.79 564.752 69.2007 565.456 70.022C566.175 70.8433 566.556 71.9213 566.6 73.256L566.622 73.938C566.666 75.2727 566.468 76.402 566.028 77.326C565.603 78.2353 564.987 78.9687 564.18 79.526C563.373 80.0687 562.427 80.472 561.342 80.736C560.271 81 559.127 81.1613 557.91 81.22ZM573.099 81.044L573.275 79.702C574.493 79.966 575.475 79.9367 576.223 79.614C576.971 79.2913 577.514 78.6973 577.851 77.832C578.203 76.9667 578.365 75.852 578.335 74.488C578.321 73.3587 578.167 72.4713 577.873 71.826C577.595 71.1807 577.221 70.726 576.751 70.462C576.297 70.1833 575.776 70.044 575.189 70.044C574.588 70.044 574.082 70.176 573.671 70.44C573.275 70.6893 572.96 71.0193 572.725 71.43C572.491 71.8407 572.322 72.288 572.219 72.772L571.713 71.848C571.977 70.7333 572.454 69.9267 573.143 69.428C573.847 68.9147 574.61 68.658 575.431 68.658C576.062 68.658 576.641 68.7607 577.169 68.966C577.712 69.1567 578.189 69.4793 578.599 69.934C579.01 70.3887 579.333 70.99 579.567 71.738C579.817 72.486 579.949 73.4027 579.963 74.488C580.007 76.1747 579.765 77.5607 579.237 78.646C578.709 79.7313 577.925 80.4867 576.883 80.912C575.857 81.3227 574.595 81.3667 573.099 81.044ZM569.029 81L570.657 72.442L568.963 68.79H570.723L572.285 72.508L570.723 81H569.029ZM589.94 81V72.816C589.94 71.8187 589.72 71.122 589.28 70.726C588.854 70.33 588.29 70.132 587.586 70.132H582.416V68.79H587.96C588.693 68.79 589.331 68.922 589.874 69.186C590.431 69.45 590.864 69.8827 591.172 70.484C591.494 71.0853 591.656 71.8847 591.656 72.882V81H589.94ZM582.394 81V75.06L582.636 73.586H584.11V75.06V81H582.394ZM606.354 81V72.816C606.354 71.8187 606.134 71.122 605.694 70.726C605.268 70.33 604.704 70.132 604 70.132H598.83V68.79H604.374C605.107 68.79 605.745 68.922 606.288 69.186C606.845 69.45 607.278 69.8827 607.586 70.484C607.908 71.0853 608.07 71.8847 608.07 72.882V81H606.354ZM598.808 81V75.06L599.05 73.586H600.524V75.06V81H598.808ZM611.236 81V71.364L610.928 68.79H612.622L612.93 71.364V81H611.236ZM616.155 81V71.364L615.847 68.79H617.541L617.849 71.364V81H616.155ZM620.019 81.308L619.843 80.098C620.445 80.0393 620.907 79.9073 621.229 79.702C621.567 79.482 621.801 79.1887 621.933 78.822C622.065 78.4553 622.131 78.0007 622.131 77.458V68.79H627.521C628.255 68.79 628.893 68.922 629.435 69.186C629.993 69.45 630.425 69.8827 630.733 70.484C631.056 71.0853 631.217 71.8847 631.217 72.882V81H629.523V72.816C629.523 71.8187 629.303 71.122 628.863 70.726C628.438 70.33 627.866 70.132 627.147 70.132H623.825V77.282C623.825 78.1473 623.693 78.866 623.429 79.438C623.165 79.9953 622.755 80.428 622.197 80.736C621.64 81.0293 620.914 81.22 620.019 81.308ZM638.004 81.044L638.18 79.702C639.397 79.966 640.38 79.9367 641.128 79.614C641.876 79.2913 642.418 78.6973 642.756 77.832C643.108 76.9667 643.269 75.852 643.24 74.488C643.225 73.3587 643.071 72.4713 642.778 71.826C642.499 71.1807 642.125 70.726 641.656 70.462C641.201 70.1833 640.68 70.044 640.094 70.044C639.492 70.044 638.986 70.176 638.576 70.44C638.18 70.6893 637.864 71.0193 637.63 71.43C637.395 71.8407 637.226 72.288 637.124 72.772L636.618 71.848C636.882 70.7333 637.358 69.9267 638.048 69.428C638.752 68.9147 639.514 68.658 640.336 68.658C640.966 68.658 641.546 68.7607 642.074 68.966C642.616 69.1567 643.093 69.4793 643.504 69.934C643.914 70.3887 644.237 70.99 644.472 71.738C644.721 72.486 644.853 73.4027 644.868 74.488C644.912 76.1747 644.67 77.5607 644.142 78.646C643.614 79.7313 642.829 80.4867 641.788 80.912C640.761 81.3227 639.5 81.3667 638.004 81.044ZM633.934 81L635.562 72.442L633.868 68.79H635.628L637.19 72.508L635.628 81H633.934Z" fill="#6A6A6A"/>
<path d="M241.621 81V72.816C241.621 71.8187 241.401 71.122 240.961 70.726C240.535 70.33 239.963 70.132 239.245 70.132H234.713V68.79H239.619C240.352 68.79 240.99 68.922 241.533 69.186C242.09 69.45 242.523 69.8827 242.831 70.484C243.153 71.0853 243.315 71.8847 243.315 72.882V79.702V81H241.621ZM234.119 81V79.658H242.743L242.589 81H234.119ZM233.701 81V69.956V68.79H235.395V70.022V81H233.701ZM246.529 76.38V74.642V71.364L246.221 68.79H247.915L248.223 71.364V74.642L248.201 76.028L246.529 76.38ZM255.056 81.044L255.232 79.702C256.45 79.966 257.432 79.9367 258.18 79.614C258.928 79.2913 259.471 78.6973 259.808 77.832C260.16 76.9667 260.322 75.852 260.292 74.488C260.278 73.3587 260.124 72.4713 259.83 71.826C259.552 71.1807 259.178 70.726 258.708 70.462C258.254 70.1833 257.733 70.044 257.146 70.044C256.545 70.044 256.039 70.176 255.628 70.44C255.232 70.6893 254.917 71.0193 254.682 71.43C254.448 71.8407 254.279 72.288 254.176 72.772L253.67 71.848C253.934 70.7333 254.411 69.9267 255.1 69.428C255.804 68.9147 256.567 68.658 257.388 68.658C258.019 68.658 258.598 68.7607 259.126 68.966C259.669 69.1567 260.146 69.4793 260.556 69.934C260.967 70.3887 261.29 70.99 261.524 71.738C261.774 72.486 261.906 73.4027 261.92 74.488C261.964 76.1747 261.722 77.5607 261.194 78.646C260.666 79.7313 259.882 80.4867 258.84 80.912C257.814 81.3227 256.552 81.3667 255.056 81.044ZM250.986 81L252.614 72.442L250.92 68.79H252.68L254.242 72.508L252.68 81H250.986ZM264.769 76.38V74.642V71.364L264.461 68.79H266.155L266.463 71.364V74.642L266.441 76.028L264.769 76.38ZM274.093 76.38V74.642V71.364L273.785 68.79H275.479L275.787 71.364V74.642L275.765 76.028L274.093 76.38ZM278.969 81V79.658H282.577C283.105 79.658 283.596 79.592 284.051 79.46C284.506 79.3133 284.902 79.086 285.239 78.778C285.576 78.4553 285.84 78.03 286.031 77.502C286.236 76.974 286.339 76.3213 286.339 75.544V74.202C286.339 73.322 286.222 72.5813 285.987 71.98C285.767 71.364 285.422 70.902 284.953 70.594C284.498 70.286 283.926 70.132 283.237 70.132H280.927L280.355 72.574C280.179 73.41 280.194 74.0553 280.399 74.51C280.619 74.95 281.147 75.258 281.983 75.434L281.631 76.6C280.766 76.512 280.098 76.292 279.629 75.94C279.174 75.588 278.888 75.1187 278.771 74.532C278.654 73.9453 278.668 73.2487 278.815 72.442L279.673 68.79H283.523C284.462 68.79 285.261 68.9953 285.921 69.406C286.596 69.8167 287.116 70.4253 287.483 71.232C287.85 72.0387 288.033 73.0433 288.033 74.246V75.478C288.033 76.49 287.894 77.348 287.615 78.052C287.351 78.756 286.977 79.328 286.493 79.768C286.024 80.1933 285.474 80.5087 284.843 80.714C284.227 80.9047 283.567 81 282.863 81H278.969ZM292.719 81L296.965 70.132H290.123V68.79H298.659V70.22L294.413 81H292.719ZM290.123 70.132V65.226H291.707V70.132H290.123ZM307.586 81L311.832 70.132H304.99V68.79H313.526V70.22L309.28 81H307.586ZM304.99 70.132V65.226H306.574V70.132H304.99ZM316.245 81V71.364L315.937 68.79H317.631L317.939 71.364V81H316.245ZM322.969 81L327.215 70.132H320.373V68.79H328.909V70.22L324.663 81H322.969ZM320.373 70.132V65.226H321.957V70.132H320.373ZM332.486 81.22L331.144 70.132L332.728 69.274L333.982 79.658C334.583 79.5993 335.163 79.504 335.72 79.372C336.292 79.2253 336.813 79.02 337.282 78.756C337.751 78.4773 338.162 78.1253 338.514 77.7C338.866 77.2747 339.13 76.754 339.306 76.138C339.482 75.5073 339.548 74.7593 339.504 73.894V73.366C339.504 72.75 339.401 72.2 339.196 71.716C339.005 71.232 338.712 70.8507 338.316 70.572C337.92 70.2787 337.436 70.132 336.864 70.132H331.144L330.99 68.79H336.996C338.316 68.79 339.328 69.2007 340.032 70.022C340.751 70.8433 341.132 71.9213 341.176 73.256L341.198 73.938C341.242 75.2727 341.044 76.402 340.604 77.326C340.179 78.2353 339.563 78.9687 338.756 79.526C337.949 80.0687 337.003 80.472 335.918 80.736C334.847 81 333.703 81.1613 332.486 81.22ZM347.676 81.044L347.852 79.702C349.069 79.966 350.052 79.9367 350.8 79.614C351.548 79.2913 352.09 78.6973 352.428 77.832C352.78 76.9667 352.941 75.852 352.912 74.488C352.897 73.3587 352.743 72.4713 352.45 71.826C352.171 71.1807 351.797 70.726 351.328 70.462C350.873 70.1833 350.352 70.044 349.766 70.044C349.164 70.044 348.658 70.176 348.248 70.44C347.852 70.6893 347.536 71.0193 347.302 71.43C347.067 71.8407 346.898 72.288 346.796 72.772L346.29 71.848C346.554 70.7333 347.03 69.9267 347.72 69.428C348.424 68.9147 349.186 68.658 350.008 68.658C350.638 68.658 351.218 68.7607 351.746 68.966C352.288 69.1567 352.765 69.4793 353.176 69.934C353.586 70.3887 353.909 70.99 354.144 71.738C354.393 72.486 354.525 73.4027 354.54 74.488C354.584 76.1747 354.342 77.5607 353.814 78.646C353.286 79.7313 352.501 80.4867 351.46 80.912C350.433 81.3227 349.172 81.3667 347.676 81.044ZM343.606 81L345.234 72.442L343.54 68.79H345.3L346.862 72.508L345.3 81H343.606ZM360.736 81.308L360.56 80.098C361.162 80.0393 361.624 79.9073 361.946 79.702C362.284 79.482 362.518 79.1887 362.65 78.822C362.782 78.4553 362.848 78.0007 362.848 77.458V68.79H368.238C368.972 68.79 369.61 68.922 370.152 69.186C370.71 69.45 371.142 69.8827 371.45 70.484C371.773 71.0853 371.934 71.8847 371.934 72.882V81H370.24V72.816C370.24 71.8187 370.02 71.122 369.58 70.726C369.155 70.33 368.583 70.132 367.864 70.132H364.542V77.282C364.542 78.1473 364.41 78.866 364.146 79.438C363.882 79.9953 363.472 80.428 362.914 80.736C362.357 81.0293 361.631 81.22 360.736 81.308ZM380.568 81V72.816C380.568 71.8187 380.348 71.122 379.908 70.726C379.483 70.33 378.911 70.132 378.192 70.132H374.298V68.79H378.566C379.3 68.79 379.945 68.922 380.502 69.186C381.06 69.45 381.492 69.8827 381.8 70.484C382.108 71.0853 382.262 71.8847 382.262 72.882V81H380.568ZM385.511 76.38V74.642V71.364L385.203 68.79H386.897L387.205 71.364V74.642L387.183 76.028L385.511 76.38ZM397.295 81L390.013 68.79H391.773L399.033 81H397.295ZM389.573 81V79.658H397.933L398.417 81H389.573ZM395.689 75.896L394.743 74.4L397.141 68.79H398.857L395.689 75.896ZM401.796 76.38V74.642V71.364L401.488 68.79H403.182L403.49 71.364V74.642L403.468 76.028L401.796 76.38Z" fill="#6A6A6A"/>
<path d="M3.81297 78L8.05897 67.132H1.21697V65.79H9.75297V67.22L5.50697 78H3.81297ZM1.21697 67.132V62.226H2.80097V67.132H1.21697ZM12.4719 78V68.364L12.1639 65.79H13.8579L14.1659 68.364V78H12.4719ZM19.1958 78L23.4418 67.132H16.5998V65.79H25.1358V67.22L20.8898 78H19.1958ZM16.5998 67.132V62.226H18.1838V67.132H16.5998ZM28.7127 78.22L27.3707 67.132L28.9547 66.274L30.2087 76.658C30.81 76.5993 31.3893 76.504 31.9467 76.372C32.5187 76.2253 33.0393 76.02 33.5087 75.756C33.978 75.4773 34.3887 75.1253 34.7407 74.7C35.0927 74.2747 35.3567 73.754 35.5327 73.138C35.7087 72.5073 35.7747 71.7593 35.7307 70.894V70.366C35.7307 69.75 35.628 69.2 35.4227 68.716C35.232 68.232 34.9387 67.8507 34.5427 67.572C34.1467 67.2787 33.6627 67.132 33.0907 67.132H27.3707L27.2167 65.79H33.2227C34.5427 65.79 35.5547 66.2007 36.2587 67.022C36.9773 67.8433 37.3587 68.9213 37.4027 70.256L37.4247 70.938C37.4687 72.2727 37.2707 73.402 36.8307 74.326C36.4053 75.2353 35.7893 75.9687 34.9827 76.526C34.176 77.0687 33.23 77.472 32.1447 77.736C31.074 78 29.93 78.1613 28.7127 78.22ZM43.9021 78.044L44.0781 76.702C45.2955 76.966 46.2781 76.9367 47.0261 76.614C47.7741 76.2913 48.3168 75.6973 48.6541 74.832C49.0061 73.9667 49.1675 72.852 49.1381 71.488C49.1235 70.3587 48.9695 69.4713 48.6761 68.826C48.3975 68.1807 48.0235 67.726 47.5541 67.462C47.0995 67.1833 46.5788 67.044 45.9921 67.044C45.3908 67.044 44.8848 67.176 44.4741 67.44C44.0781 67.6893 43.7628 68.0193 43.5281 68.43C43.2935 68.8407 43.1248 69.288 43.0221 69.772L42.5161 68.848C42.7801 67.7333 43.2568 66.9267 43.9461 66.428C44.6501 65.9147 45.4128 65.658 46.2341 65.658C46.8648 65.658 47.4441 65.7607 47.9721 65.966C48.5148 66.1567 48.9915 66.4793 49.4021 66.934C49.8128 67.3887 50.1355 67.99 50.3701 68.738C50.6195 69.486 50.7515 70.4027 50.7661 71.488C50.8101 73.1747 50.5681 74.5607 50.0401 75.646C49.5121 76.7313 48.7275 77.4867 47.6861 77.912C46.6595 78.3227 45.3981 78.3667 43.9021 78.044ZM39.8321 78L41.4601 69.442L39.7661 65.79H41.5261L43.0881 69.508L41.5261 78H39.8321ZM59.3564 78V69.816C59.3564 68.8187 59.1364 68.122 58.6964 67.726C58.2711 67.33 57.6991 67.132 56.9804 67.132H53.0204V65.79H57.3544C58.0878 65.79 58.7331 65.922 59.2904 66.186C59.8478 66.45 60.2804 66.8827 60.5884 67.484C60.8964 68.0853 61.0504 68.8847 61.0504 69.882V78H59.3564ZM53.0204 78V76.658H62.6124V78H53.0204ZM76.7268 78V69.816C76.7268 68.8187 76.5068 68.122 76.0668 67.726C75.6415 67.33 75.0768 67.132 74.3728 67.132H69.2028V65.79H74.7468C75.4801 65.79 76.1181 65.922 76.6608 66.186C77.2181 66.45 77.6508 66.8827 77.9588 67.484C78.2815 68.0853 78.4428 68.8847 78.4428 69.882V78H76.7268ZM69.1808 78V72.06L69.4228 70.586H70.8968V72.06V78H69.1808ZM81.6086 73.38V71.642V68.364L81.3006 65.79H82.9946L83.3026 68.364V71.642L83.2806 73.028L81.6086 73.38ZM86.5285 73.38V71.642V68.364L86.2205 65.79H87.9145L88.2225 68.364V71.642L88.2005 73.028L86.5285 73.38ZM91.4044 78V76.658H95.0124C95.5404 76.658 96.0318 76.592 96.4864 76.46C96.9411 76.3133 97.3371 76.086 97.6744 75.778C98.0118 75.4553 98.2758 75.03 98.4664 74.502C98.6718 73.974 98.7744 73.3213 98.7744 72.544V71.202C98.7744 70.322 98.6571 69.5813 98.4224 68.98C98.2024 68.364 97.8578 67.902 97.3884 67.594C96.9338 67.286 96.3618 67.132 95.6724 67.132H93.3624L92.7904 69.574C92.6144 70.41 92.6291 71.0553 92.8344 71.51C93.0544 71.95 93.5824 72.258 94.4184 72.434L94.0664 73.6C93.2011 73.512 92.5338 73.292 92.0644 72.94C91.6098 72.588 91.3238 72.1187 91.2064 71.532C91.0891 70.9453 91.1038 70.2487 91.2504 69.442L92.1084 65.79H95.9584C96.8971 65.79 97.6964 65.9953 98.3564 66.406C99.0311 66.8167 99.5518 67.4253 99.9184 68.232C100.285 69.0387 100.468 70.0433 100.468 71.246V72.478C100.468 73.49 100.329 74.348 100.05 75.052C99.7864 75.756 99.4124 76.328 98.9284 76.768C98.4591 77.1933 97.9091 77.5087 97.2784 77.714C96.6624 77.9047 96.0024 78 95.2984 78H91.4044ZM110.215 78L102.933 65.79H104.693L111.953 78H110.215ZM102.493 78V76.658H110.853L111.337 78H102.493ZM108.609 72.896L107.663 71.4L110.061 65.79H111.777L108.609 72.896Z" fill="#6A6A6A"/>
<circle cx="232" cy="24" r="7" fill="#621E8A"/>
<circle cx="207" cy="24" r="7" fill="#621E8A"/>
<circle cx="182" cy="24" r="7" fill="#D9D9D9"/>
<circle cx="157" cy="24" r="7" fill="#D9D9D9"/>
<circle cx="132" cy="24" r="7" fill="#D9D9D9"/>
<path d="M852.878 28.3475L848.916 24.4509C848.812 24.3477 848.689 24.2658 848.553 24.2099C848.417 24.1541 848.271 24.1253 848.123 24.1253C847.976 24.1253 847.83 24.1541 847.694 24.2099C847.558 24.2658 847.435 24.3477 847.331 24.4509C847.226 24.5528 847.143 24.6741 847.086 24.8079C847.029 24.9417 847 25.0852 847 25.2302C847 25.3752 847.029 25.5187 847.086 25.6525C847.143 25.7863 847.226 25.9076 847.331 26.0095L852.074 30.6744C852.515 31.1085 853.229 31.1085 853.67 30.6744L865.669 18.8842C865.774 18.7823 865.857 18.661 865.914 18.5272C865.971 18.3934 866 18.2499 866 18.1049C866 17.9599 865.971 17.8164 865.914 17.6826C865.857 17.5488 865.774 17.4275 865.669 17.3256C865.565 17.2224 865.442 17.1406 865.306 17.0847C865.17 17.0288 865.024 17 864.877 17C864.729 17 864.583 17.0288 864.447 17.0847C864.311 17.1406 864.188 17.2224 864.084 17.3256L852.878 28.3475Z" fill="white"/>
<path d="M586.878 28.3475L582.916 24.4509C582.812 24.3477 582.689 24.2658 582.553 24.2099C582.417 24.1541 582.271 24.1253 582.123 24.1253C581.976 24.1253 581.83 24.1541 581.694 24.2099C581.558 24.2658 581.435 24.3477 581.331 24.4509C581.226 24.5528 581.143 24.6741 581.086 24.8079C581.029 24.9417 581 25.0852 581 25.2302C581 25.3752 581.029 25.5187 581.086 25.6525C581.143 25.7863 581.226 25.9076 581.331 26.0095L586.074 30.6744C586.515 31.1085 587.229 31.1085 587.67 30.6744L599.669 18.8842C599.774 18.7823 599.857 18.661 599.914 18.5272C599.971 18.3934 600 18.2499 600 18.1049C600 17.9599 599.971 17.8164 599.914 17.6826C599.857 17.5488 599.774 17.4275 599.669 17.3256C599.565 17.2224 599.442 17.1406 599.306 17.0847C599.17 17.0288 599.024 17 598.877 17C598.729 17 598.583 17.0288 598.447 17.0847C598.311 17.1406 598.188 17.2224 598.084 17.3256L586.878 28.3475Z" fill="white"/>
</svg>
