<svg width="709" height="230" viewBox="0 0 709 230" fill="none" xmlns="http://www.w3.org/2000/svg">
<path d="M53.2775 93V55.56C53.2775 53.064 52.7015 51.304 51.5495 50.28C50.4615 49.192 48.8935 48.648 46.8455 48.648H28.0295V38.184H50.5895C53.7895 38.184 56.6375 38.792 59.1335 40.008C61.6295 41.224 63.5815 43.144 64.9895 45.768C66.4615 48.392 67.1975 51.88 67.1975 56.232V93H53.2775ZM78.0725 93V49.416L77.0165 38.184H90.8405L91.9925 49.416V93H78.0725ZM132.004 93L100.996 38.184H115.012L145.924 93H132.004ZM100.036 93V82.632H138.436L142.372 93H100.036ZM132.868 71.496L124.996 59.688L133.636 38.184H147.364L132.868 71.496ZM156.541 72.84V64.392V49.416L155.485 38.184H169.309L170.461 49.416V64.392L170.365 70.44L156.541 72.84ZM189.161 93L206.441 48.648H178.601V38.184H220.361V49.608L203.081 93H189.161ZM178.601 48.648V24.168H191.081V48.648H178.601ZM248.416 93V49.416L247.36 38.184H261.184L262.336 49.416V93H248.416ZM281.036 93L298.316 48.648H270.476V38.184H312.236V49.608L294.956 93H281.036ZM270.476 48.648V24.168H282.956V48.648H270.476ZM318.097 93V82.632H333.457C336.017 82.632 338.097 82.056 339.697 80.904C341.297 79.752 342.449 78.152 343.153 76.104C343.921 74.056 344.305 71.752 344.305 69.192V61.992C344.305 59.432 343.921 57.16 343.153 55.176C342.449 53.128 341.297 51.528 339.697 50.376C338.097 49.224 336.017 48.648 333.457 48.648H318.097V38.184H337.201C341.873 38.184 345.745 39.208 348.817 41.256C351.953 43.304 354.289 46.184 355.825 49.896C357.425 53.544 358.225 57.832 358.225 62.76V68.424C358.225 73.416 357.425 77.768 355.825 81.48C354.289 85.128 351.953 87.976 348.817 90.024C345.745 92.008 341.873 93 337.201 93H318.097ZM367.666 93V49.416L366.61 38.184H380.434L381.586 49.416V93H367.666ZM389.63 94.632L388.382 85.224C390.878 84.904 392.734 84.424 393.95 83.784C395.166 83.08 395.966 82.056 396.35 80.712C396.798 79.368 397.022 77.64 397.022 75.528V38.184H426.11C429.31 38.184 432.126 38.792 434.558 40.008C437.054 41.224 439.006 43.144 440.414 45.768C441.886 48.392 442.622 51.88 442.622 56.232V93H428.702V55.56C428.702 53.064 428.126 51.304 426.974 50.28C425.886 49.192 424.318 48.648 422.27 48.648H410.942V73.704C410.942 78.632 410.174 82.536 408.638 85.416C407.166 88.296 404.862 90.44 401.726 91.848C398.59 93.256 394.558 94.184 389.63 94.632ZM472.666 93V49.416L471.61 38.184H485.434L486.586 49.416V93H472.666ZM497.51 72.84V64.392V49.416L496.454 38.184H510.278L511.43 49.416V64.392L511.334 70.44L497.51 72.84ZM527.634 93.96L520.434 38.184H533.586L538.866 82.536C543.666 82.216 547.698 81.352 550.962 79.944C554.226 78.472 556.818 76.552 558.738 74.184C560.722 71.816 562.13 69 562.962 65.736C563.794 62.472 564.21 58.888 564.21 54.984L564.018 38.184H577.938L578.034 54.312C578.098 63.144 576.37 70.568 572.85 76.584C569.33 82.536 563.858 86.984 556.434 89.928C549.01 92.872 539.41 94.216 527.634 93.96ZM535.602 72.072L532.338 63.432C535.282 62.664 537.49 61.576 538.962 60.168C540.498 58.696 541.522 56.712 542.034 54.216C542.546 51.72 542.802 48.52 542.802 44.616V38.28H555.954V44.328C555.89 48.872 555.25 52.968 554.034 56.616C552.882 60.2 550.834 63.272 547.89 65.832C545.01 68.392 540.914 70.472 535.602 72.072ZM584.44 93V82.632H599.8C602.36 82.632 604.44 82.056 606.04 80.904C607.64 79.752 608.792 78.152 609.496 76.104C610.264 74.056 610.648 71.752 610.648 69.192V61.992C610.648 59.432 610.264 57.16 609.496 55.176C608.792 53.128 607.64 51.528 606.04 50.376C604.44 49.224 602.36 48.648 599.8 48.648H584.44V38.184H603.544C608.216 38.184 612.088 39.208 615.16 41.256C618.296 43.304 620.632 46.184 622.168 49.896C623.768 53.544 624.568 57.832 624.568 62.76V68.424C624.568 73.416 623.768 77.768 622.168 81.48C620.632 85.128 618.296 87.976 615.16 90.024C612.088 92.008 608.216 93 603.544 93H584.44ZM630.842 96.744L628.922 85.896L651.29 81.672C654.426 81.096 656.922 80.136 658.778 78.792C660.698 77.384 662.138 75.56 663.098 73.32C664.058 71.016 664.73 68.232 665.114 64.968C665.498 61.64 665.69 57.768 665.69 53.352C665.754 48.936 665.786 43.88 665.786 38.184H679.514C679.514 44.456 679.386 50.184 679.13 55.368C678.938 60.488 678.394 65.128 677.498 69.288C676.666 73.384 675.258 77 673.274 80.136C671.29 83.208 668.538 85.8 665.018 87.912C661.498 90.024 656.986 91.624 651.482 92.712L630.842 96.744ZM644.57 84.36L633.146 38.184H647.066L657.818 84.36H644.57ZM99.8776 208V170.56C99.8776 168.064 99.3016 166.304 98.1496 165.28C97.0616 164.192 95.4936 163.648 93.4456 163.648H75.5896V153.184H97.1896C100.39 153.184 103.238 153.792 105.734 155.008C108.23 156.224 110.182 158.144 111.59 160.768C113.062 163.392 113.798 166.88 113.798 171.232V199.072V208H99.8776ZM69.7336 208V197.632H108.806L108.518 208H69.7336ZM66.7576 208V161.632V153.184H80.6776V162.4V208H66.7576ZM121.362 208V197.632H136.722C139.282 197.632 141.362 197.056 142.962 195.904C144.562 194.752 145.714 193.152 146.418 191.104C147.186 189.056 147.57 186.752 147.57 184.192V176.992C147.57 174.432 147.186 172.16 146.418 170.176C145.714 168.128 144.562 166.528 142.962 165.376C141.362 164.224 139.282 163.648 136.722 163.648H121.362V153.184H140.466C145.138 153.184 149.01 154.208 152.082 156.256C155.218 158.304 157.554 161.184 159.09 164.896C160.69 168.544 161.49 172.832 161.49 177.76V183.424C161.49 188.416 160.69 192.768 159.09 196.48C157.554 200.128 155.218 202.976 152.082 205.024C149.01 207.008 145.138 208 140.466 208H121.362ZM190.612 208.096L191.86 197.728C196.596 198.752 200.276 198.72 202.9 197.632C205.524 196.48 207.348 194.4 208.372 191.392C209.46 188.384 209.972 184.64 209.908 180.16C209.844 176.128 209.396 172.864 208.564 170.368C207.732 167.872 206.548 166.08 205.012 164.992C203.476 163.84 201.524 163.264 199.156 163.264C197.428 163.264 195.86 163.616 194.452 164.32C193.044 165.024 191.892 166.048 190.996 167.392C190.1 168.736 189.524 170.336 189.268 172.192L186.1 166.24C187.38 161.376 189.46 157.856 192.34 155.68C195.284 153.44 198.516 152.32 202.036 152.32C205.428 152.32 208.404 152.896 210.964 154.048C213.588 155.136 215.796 156.832 217.588 159.136C219.38 161.44 220.724 164.352 221.62 167.872C222.58 171.392 223.06 175.488 223.06 180.16C223.124 187.2 221.876 193.088 219.316 197.824C216.82 202.56 213.14 205.888 208.276 207.808C203.412 209.664 197.524 209.76 190.612 208.096ZM169.492 208L176.212 171.04L168.532 153.184H182.932L189.364 171.712L183.412 208H169.492ZM261.614 208L230.606 153.184H244.622L275.534 208H261.614ZM229.646 208V197.632H268.046L271.982 208H229.646ZM262.478 186.496L254.606 174.688L263.246 153.184H276.974L262.478 186.496ZM282.983 211.744L281.063 200.896L303.431 196.672C306.567 196.096 309.063 195.136 310.919 193.792C312.839 192.384 314.279 190.56 315.239 188.32C316.199 186.016 316.871 183.232 317.255 179.968C317.639 176.64 317.831 172.768 317.831 168.352C317.895 163.936 317.927 158.88 317.927 153.184H331.655C331.655 159.456 331.527 165.184 331.271 170.368C331.079 175.488 330.535 180.128 329.639 184.288C328.807 188.384 327.399 192 325.415 195.136C323.431 198.208 320.679 200.8 317.159 202.912C313.639 205.024 309.127 206.624 303.623 207.712L282.983 211.744ZM296.711 199.36L285.287 153.184H299.207L309.959 199.36H296.711ZM364.695 208V170.56C364.695 168.064 364.119 166.304 362.967 165.28C361.815 164.192 360.215 163.648 358.167 163.648H339.255V153.184H362.007C365.207 153.184 368.055 153.792 370.551 155.008C373.047 156.224 374.999 158.144 376.407 160.768C377.815 163.392 378.519 166.88 378.519 171.232V208H364.695ZM339.255 208V197.632H384.951V208H339.255ZM420.583 208L437.863 163.648H410.023V153.184H451.783V164.608L434.503 208H420.583ZM410.023 163.648V139.168H422.503V163.648H410.023ZM460.619 208V164.416L459.563 153.184H473.387L474.539 164.416V208H460.619ZM493.239 208L510.519 163.648H482.679V153.184H524.439V164.608L507.159 208H493.239ZM482.679 163.648V139.168H495.159V163.648H482.679ZM537.884 208.96L532.604 163.648L545.852 157.408L550.076 196.672C552.828 196.416 555.196 196 557.18 195.424C559.228 194.784 560.924 193.92 562.268 192.832C563.612 191.68 564.636 190.336 565.34 188.8C566.108 187.2 566.652 185.344 566.972 183.232C567.292 181.12 567.388 178.72 567.26 176.032V173.152C567.26 171.168 566.94 169.504 566.3 168.16C565.724 166.752 564.86 165.664 563.708 164.896C562.62 164.064 561.308 163.648 559.772 163.648H532.604L531.356 153.184H560.828C567.164 153.184 572.028 154.976 575.42 158.56C578.876 162.144 580.7 167.008 580.892 173.152L580.988 176.32C581.18 182.272 580.284 187.296 578.3 191.392C576.38 195.424 573.5 198.688 569.66 201.184C565.884 203.68 561.308 205.568 555.932 206.848C550.556 208.064 544.54 208.768 537.884 208.96ZM611.081 208.096L612.329 197.728C617.065 198.752 620.745 198.72 623.369 197.632C625.993 196.48 627.817 194.4 628.841 191.392C629.929 188.384 630.441 184.64 630.377 180.16C630.313 176.128 629.865 172.864 629.033 170.368C628.201 167.872 627.017 166.08 625.481 164.992C623.945 163.84 621.993 163.264 619.625 163.264C617.897 163.264 616.329 163.616 614.921 164.32C613.513 165.024 612.361 166.048 611.465 167.392C610.569 168.736 609.993 170.336 609.737 172.192L606.569 166.24C607.849 161.376 609.929 157.856 612.809 155.68C615.753 153.44 618.985 152.32 622.505 152.32C625.897 152.32 628.873 152.896 631.433 154.048C634.057 155.136 636.265 156.832 638.057 159.136C639.849 161.44 641.193 164.352 642.089 167.872C643.049 171.392 643.529 175.488 643.529 180.16C643.593 187.2 642.345 193.088 639.785 197.824C637.289 202.56 633.609 205.888 628.745 207.808C623.881 209.664 617.993 209.76 611.081 208.096ZM589.961 208L596.681 171.04L589.001 153.184H603.401L609.833 171.712L603.881 208H589.961Z" fill="#946AB3"/>
<rect x="25" y="189" width="19" height="19" rx="1" fill="#8FCB9C"/>
</svg>
