<svg width="676" height="91" viewBox="0 0 676 91" fill="none" xmlns="http://www.w3.org/2000/svg">
<path d="M405 24L585 24" stroke="#D9D9D9" stroke-width="3" stroke-linecap="round"/>
<path d="M139 24L319 24" stroke="#D9D9D9" stroke-width="3" stroke-linecap="round"/>
<circle cx="624" cy="24" r="24" fill="#621E8A"/>
<circle cx="358" cy="24" r="23.5" stroke="#D9D9D9"/>
<circle cx="103" cy="24" r="23.5" stroke="#D9D9D9"/>
<path d="M619.864 19.6V16.504H625.648V34H622.192V19.6H619.864Z" fill="white"/>
<path d="M353.328 30.208C354.864 28.928 356.088 27.864 357 27.016C357.912 26.152 358.672 25.256 359.28 24.328C359.888 23.4 360.192 22.488 360.192 21.592C360.192 20.776 360 20.136 359.616 19.672C359.232 19.208 358.64 18.976 357.84 18.976C357.04 18.976 356.424 19.248 355.992 19.792C355.56 20.32 355.336 21.048 355.32 21.976H352.056C352.12 20.056 352.688 18.6 353.76 17.608C354.848 16.616 356.224 16.12 357.888 16.12C359.712 16.12 361.112 16.608 362.088 17.584C363.064 18.544 363.552 19.816 363.552 21.4C363.552 22.648 363.216 23.84 362.544 24.976C361.872 26.112 361.104 27.104 360.24 27.952C359.376 28.784 358.248 29.792 356.856 30.976H363.936V33.76H352.08V31.264L353.328 30.208Z" fill="#D9D9D9"/>
<path d="M96.32 21.112C96.4 19.512 96.96 18.28 98 17.416C99.056 16.536 100.44 16.096 102.152 16.096C103.32 16.096 104.32 16.304 105.152 16.72C105.984 17.12 106.608 17.672 107.024 18.376C107.456 19.064 107.672 19.848 107.672 20.728C107.672 21.736 107.408 22.592 106.88 23.296C106.368 23.984 105.752 24.448 105.032 24.688V24.784C105.96 25.072 106.68 25.584 107.192 26.32C107.72 27.056 107.984 28 107.984 29.152C107.984 30.112 107.76 30.968 107.312 31.72C106.88 32.472 106.232 33.064 105.368 33.496C104.52 33.912 103.496 34.12 102.296 34.12C100.488 34.12 99.016 33.664 97.88 32.752C96.744 31.84 96.144 30.496 96.08 28.72H99.344C99.376 29.504 99.64 30.136 100.136 30.616C100.648 31.08 101.344 31.312 102.224 31.312C103.04 31.312 103.664 31.088 104.096 30.64C104.544 30.176 104.768 29.584 104.768 28.864C104.768 27.904 104.464 27.216 103.856 26.8C103.248 26.384 102.304 26.176 101.024 26.176H100.328V23.416H101.024C103.296 23.416 104.432 22.656 104.432 21.136C104.432 20.448 104.224 19.912 103.808 19.528C103.408 19.144 102.824 18.952 102.056 18.952C101.304 18.952 100.72 19.16 100.304 19.576C99.904 19.976 99.672 20.488 99.608 21.112H96.32Z" fill="#D9D9D9"/>
<path d="M577.659 85.754L577.373 84.142L582.001 83.258C583.024 83.0673 583.856 82.7813 584.497 82.4C585.156 82.0187 585.659 81.516 586.005 80.892C586.369 80.268 586.629 79.488 586.785 78.552C586.959 77.616 587.063 76.4893 587.097 75.172C587.132 73.8547 587.149 72.3207 587.149 70.57H589.125C589.125 72.442 589.091 74.0973 589.021 75.536C588.952 76.9747 588.796 78.2313 588.553 79.306C588.311 80.3633 587.929 81.256 587.409 81.984C586.907 82.712 586.213 83.3187 585.329 83.804C584.463 84.272 583.362 84.636 582.027 84.896L577.659 85.754ZM582.027 83.414L578.621 70.57H580.623L583.977 83.414H582.027ZM598.44 85V75.198C598.44 74.5567 598.5 73.976 598.622 73.456C598.76 72.936 598.942 72.5027 599.168 72.156H591.888V70.57H603.016V72.156H601.092C600.832 72.5893 600.658 73.092 600.572 73.664C600.502 74.2187 600.468 74.73 600.468 75.198V85H598.44ZM606.477 79.54V77.486V73.612L606.113 70.57H608.115L608.479 73.612V77.486L608.453 79.124L606.477 79.54ZM616.556 85.052L616.764 83.466C618.202 83.778 619.364 83.7433 620.248 83.362C621.132 82.9807 621.773 82.2787 622.172 81.256C622.588 80.2333 622.778 78.916 622.744 77.304C622.726 75.9693 622.544 74.9207 622.198 74.158C621.868 73.3953 621.426 72.858 620.872 72.546C620.334 72.2167 619.719 72.052 619.026 72.052C618.315 72.052 617.717 72.208 617.232 72.52C616.764 72.8147 616.391 73.2047 616.114 73.69C615.836 74.1753 615.637 74.704 615.516 75.276L614.918 74.184C615.23 72.8667 615.793 71.9133 616.608 71.324C617.44 70.7173 618.341 70.414 619.312 70.414C620.057 70.414 620.742 70.5353 621.366 70.778C622.007 71.0033 622.57 71.3847 623.056 71.922C623.541 72.4593 623.922 73.17 624.2 74.054C624.494 74.938 624.65 76.0213 624.668 77.304C624.72 79.2973 624.434 80.9353 623.81 82.218C623.186 83.5007 622.258 84.3933 621.028 84.896C619.814 85.3813 618.324 85.4333 616.556 85.052ZM611.746 85L613.67 74.886L611.668 70.57H613.748L615.594 74.964L613.748 85H611.746ZM633.239 85V73.612L632.875 70.57H634.877L635.241 73.612V85H633.239ZM638.273 85V83.414H642.797V74.73C642.797 73.8633 642.615 73.2393 642.251 72.858C641.905 72.4593 641.411 72.208 640.769 72.104L639.027 71.844L639.313 70.284L641.575 70.622C642.615 70.778 643.413 71.2027 643.967 71.896C644.522 72.572 644.799 73.508 644.799 74.704V85H638.273ZM648.626 79.54V77.486V73.612L648.262 70.57H650.264L650.628 73.612V77.486L650.602 79.124L648.626 79.54ZM655.714 85V75.198C655.714 74.5567 655.775 73.976 655.896 73.456C656.035 72.936 656.217 72.5027 656.442 72.156H653.816V70.57H660.368V72.156H658.314C658.054 72.5893 657.889 73.092 657.82 73.664C657.751 74.2187 657.716 74.73 657.716 75.198V85H655.714ZM672.259 85V75.328C672.259 74.1493 671.999 73.326 671.479 72.858C670.976 72.39 670.309 72.156 669.477 72.156H663.367V70.57H669.919C670.785 70.57 671.539 70.726 672.181 71.038C672.839 71.35 673.351 71.8613 673.715 72.572C674.096 73.2827 674.287 74.2273 674.287 75.406V85H672.259ZM663.341 85V77.98L663.627 76.238H665.369V77.98V85H663.341Z" fill="#6A6A6A"/>
<path d="M267.264 85L272.282 72.156H264.196V70.57H274.284V72.26L269.266 85H267.264ZM264.196 72.156V66.358H266.068V72.156H264.196ZM277.497 85V73.612L277.133 70.57H279.135L279.499 73.612V85H277.497ZM285.443 85L290.461 72.156H282.375V70.57H292.463V72.26L287.445 85H285.443ZM282.375 72.156V66.358H284.247V72.156H282.375ZM296.69 85.26L295.104 72.156L296.976 71.142L298.458 83.414C299.169 83.3447 299.854 83.232 300.512 83.076C301.188 82.9027 301.804 82.66 302.358 82.348C302.913 82.0187 303.398 81.6027 303.814 81.1C304.23 80.5973 304.542 79.982 304.75 79.254C304.958 78.5087 305.036 77.6247 304.984 76.602V75.978C304.984 75.25 304.863 74.6 304.62 74.028C304.395 73.456 304.048 73.0053 303.58 72.676C303.112 72.3293 302.54 72.156 301.864 72.156H295.104L294.922 70.57H302.02C303.58 70.57 304.776 71.0553 305.608 72.026C306.458 72.9967 306.908 74.2707 306.96 75.848L306.986 76.654C307.038 78.2313 306.804 79.566 306.284 80.658C305.782 81.7327 305.054 82.5993 304.1 83.258C303.147 83.8993 302.029 84.376 300.746 84.688C299.481 85 298.129 85.1907 296.69 85.26ZM314.642 85.052L314.85 83.466C316.288 83.778 317.45 83.7433 318.334 83.362C319.218 82.9807 319.859 82.2787 320.258 81.256C320.674 80.2333 320.864 78.916 320.83 77.304C320.812 75.9693 320.63 74.9207 320.284 74.158C319.954 73.3953 319.512 72.858 318.958 72.546C318.42 72.2167 317.805 72.052 317.112 72.052C316.401 72.052 315.803 72.208 315.318 72.52C314.85 72.8147 314.477 73.2047 314.2 73.69C313.922 74.1753 313.723 74.704 313.602 75.276L313.004 74.184C313.316 72.8667 313.879 71.9133 314.694 71.324C315.526 70.7173 316.427 70.414 317.398 70.414C318.143 70.414 318.828 70.5353 319.452 70.778C320.093 71.0033 320.656 71.3847 321.142 71.922C321.627 72.4593 322.008 73.17 322.286 74.054C322.58 74.938 322.736 76.0213 322.754 77.304C322.806 79.2973 322.52 80.9353 321.896 82.218C321.272 83.5007 320.344 84.3933 319.114 84.896C317.9 85.3813 316.41 85.4333 314.642 85.052ZM309.832 85L311.756 74.886L309.754 70.57H311.834L313.68 74.964L311.834 85H309.832ZM334.544 85V75.328C334.544 74.1493 334.284 73.326 333.764 72.858C333.261 72.39 332.594 72.156 331.762 72.156H325.652V70.57H332.204C333.07 70.57 333.824 70.726 334.466 71.038C335.124 71.35 335.636 71.8613 336 72.572C336.381 73.2827 336.572 74.2273 336.572 75.406V85H334.544ZM325.626 85V77.98L325.912 76.238H327.654V77.98V85H325.626ZM353.942 85V75.328C353.942 74.1493 353.682 73.326 353.162 72.858C352.66 72.39 351.992 72.156 351.16 72.156H345.05V70.57H351.602C352.469 70.57 353.223 70.726 353.864 71.038C354.523 71.35 355.034 71.8613 355.398 72.572C355.78 73.2827 355.97 74.2273 355.97 75.406V85H353.942ZM345.024 85V77.98L345.31 76.238H347.052V77.98V85H345.024ZM359.712 85V73.612L359.348 70.57H361.35L361.714 73.612V85H359.712ZM365.526 85V73.612L365.162 70.57H367.164L367.528 73.612V85H365.526ZM370.093 85.364L369.885 83.934C370.595 83.8647 371.141 83.7087 371.523 83.466C371.921 83.206 372.199 82.8593 372.355 82.426C372.511 81.9927 372.589 81.4553 372.589 80.814V70.57H378.959C379.825 70.57 380.579 70.726 381.221 71.038C381.879 71.35 382.391 71.8613 382.755 72.572C383.136 73.2827 383.327 74.2273 383.327 75.406V85H381.325V75.328C381.325 74.1493 381.065 73.326 380.545 72.858C380.042 72.39 379.366 72.156 378.517 72.156H374.591V80.606C374.591 81.6287 374.435 82.478 374.123 83.154C373.811 83.8127 373.325 84.324 372.667 84.688C372.008 85.0347 371.15 85.26 370.093 85.364ZM391.347 85.052L391.555 83.466C392.993 83.778 394.155 83.7433 395.039 83.362C395.923 82.9807 396.564 82.2787 396.963 81.256C397.379 80.2333 397.569 78.916 397.535 77.304C397.517 75.9693 397.335 74.9207 396.989 74.158C396.659 73.3953 396.217 72.858 395.663 72.546C395.125 72.2167 394.51 72.052 393.817 72.052C393.106 72.052 392.508 72.208 392.023 72.52C391.555 72.8147 391.182 73.2047 390.905 73.69C390.627 74.1753 390.428 74.704 390.307 75.276L389.709 74.184C390.021 72.8667 390.584 71.9133 391.399 71.324C392.231 70.7173 393.132 70.414 394.103 70.414C394.848 70.414 395.533 70.5353 396.157 70.778C396.798 71.0033 397.361 71.3847 397.847 71.922C398.332 72.4593 398.713 73.17 398.991 74.054C399.285 74.938 399.441 76.0213 399.459 77.304C399.511 79.2973 399.225 80.9353 398.601 82.218C397.977 83.5007 397.049 84.3933 395.819 84.896C394.605 85.3813 393.115 85.4333 391.347 85.052ZM386.537 85L388.461 74.886L386.459 70.57H388.539L390.385 74.964L388.539 85H386.537ZM409.611 85V75.328C409.611 74.1493 409.351 73.326 408.831 72.858C408.328 72.39 407.652 72.156 406.803 72.156H402.123V70.57H407.245C408.112 70.57 408.874 70.726 409.533 71.038C410.192 71.35 410.703 71.8613 411.067 72.572C411.431 73.2827 411.613 74.2273 411.613 75.406V85H409.611ZM402.123 85V83.414H413.459V85H402.123ZM421.716 85V73.612L421.352 70.57H423.354L423.718 73.612V85H421.716ZM427.478 85V83.414H431.742C432.366 83.414 432.947 83.336 433.484 83.18C434.021 83.0067 434.489 82.738 434.888 82.374C435.287 81.9927 435.599 81.49 435.824 80.866C436.067 80.242 436.188 79.4707 436.188 78.552V76.966C436.188 75.926 436.049 75.0507 435.772 74.34C435.512 73.612 435.105 73.066 434.55 72.702C434.013 72.338 433.337 72.156 432.522 72.156H429.792L429.116 75.042C428.908 76.03 428.925 76.7927 429.168 77.33C429.428 77.85 430.052 78.214 431.04 78.422L430.624 79.8C429.601 79.696 428.813 79.436 428.258 79.02C427.721 78.604 427.383 78.0493 427.244 77.356C427.105 76.6627 427.123 75.8393 427.296 74.886L428.31 70.57H432.86C433.969 70.57 434.914 70.8127 435.694 71.298C436.491 71.7833 437.107 72.5027 437.54 73.456C437.973 74.4093 438.19 75.5967 438.19 77.018V78.474C438.19 79.67 438.025 80.684 437.696 81.516C437.384 82.348 436.942 83.024 436.37 83.544C435.815 84.0467 435.165 84.4193 434.42 84.662C433.692 84.8873 432.912 85 432.08 85H427.478ZM449.708 85L441.102 70.57H443.182L451.762 85H449.708ZM440.582 85V83.414H450.462L451.034 85H440.582ZM447.81 78.968L446.692 77.2L449.526 70.57H451.554L447.81 78.968Z" fill="#6A6A6A"/>
<path d="M3.14295 85.26L1.40095 70.57H3.40295L4.91095 83.414C5.81229 83.3273 6.66162 83.1367 7.45895 82.842C8.25629 82.5473 8.95829 82.1313 9.56495 81.594C10.189 81.0393 10.6656 80.3373 10.995 79.488C11.3243 78.6213 11.463 77.5813 11.411 76.368V75.718C11.411 75.0073 11.2896 74.392 11.047 73.872C10.8216 73.3347 10.4576 72.91 9.95495 72.598C9.46962 72.2687 8.84562 72.078 8.08295 72.026L6.78295 71.948L6.91295 70.336L8.36895 70.44C9.35695 70.492 10.215 70.7087 10.943 71.09C11.6883 71.4713 12.269 72.0173 12.685 72.728C13.101 73.4387 13.3263 74.3487 13.361 75.458L13.387 76.186C13.439 77.7633 13.2136 79.1153 12.711 80.242C12.2256 81.3687 11.5063 82.2873 10.553 82.998C9.61695 83.7087 8.51629 84.246 7.25095 84.61C5.98562 84.974 4.61629 85.1907 3.14295 85.26ZM22.974 85V75.328C22.974 74.1493 22.714 73.326 22.194 72.858C21.6914 72.39 21.0154 72.156 20.166 72.156H15.564V70.57H20.608C21.4747 70.57 22.2374 70.726 22.896 71.038C23.5547 71.35 24.066 71.8613 24.43 72.572C24.794 73.2827 24.976 74.2273 24.976 75.406V85H22.974ZM28.8151 85V73.612L28.4511 70.57H30.4531L30.8171 73.612V85H28.8151ZM34.5776 85V83.414H38.8416C39.4656 83.414 40.0462 83.336 40.5836 83.18C41.1209 83.0067 41.5889 82.738 41.9876 82.374C42.3862 81.9927 42.6982 81.49 42.9236 80.866C43.1662 80.242 43.2876 79.4707 43.2876 78.552V76.966C43.2876 75.926 43.1489 75.0507 42.8716 74.34C42.6116 73.612 42.2042 73.066 41.6496 72.702C41.1122 72.338 40.4362 72.156 39.6216 72.156H36.8916L36.2156 75.042C36.0076 76.03 36.0249 76.7927 36.2676 77.33C36.5276 77.85 37.1516 78.214 38.1396 78.422L37.7236 79.8C36.7009 79.696 35.9122 79.436 35.3576 79.02C34.8202 78.604 34.4822 78.0493 34.3436 77.356C34.2049 76.6627 34.2222 75.8393 34.3956 74.886L35.4096 70.57H39.9596C41.0689 70.57 42.0136 70.8127 42.7936 71.298C43.5909 71.7833 44.2062 72.5027 44.6396 73.456C45.0729 74.4093 45.2896 75.5967 45.2896 77.018V78.474C45.2896 79.67 45.1249 80.684 44.7956 81.516C44.4836 82.348 44.0416 83.024 43.4696 83.544C42.9149 84.0467 42.2649 84.4193 41.5196 84.662C40.7916 84.8873 40.0116 85 39.1796 85H34.5776ZM52.96 85.052L53.168 83.466C54.6066 83.778 55.768 83.7433 56.652 83.362C57.536 82.9807 58.1773 82.2787 58.576 81.256C58.992 80.2333 59.1826 78.916 59.148 77.304C59.1306 75.9693 58.9486 74.9207 58.602 74.158C58.2726 73.3953 57.8306 72.858 57.276 72.546C56.7386 72.2167 56.1233 72.052 55.43 72.052C54.7193 72.052 54.1213 72.208 53.636 72.52C53.168 72.8147 52.7953 73.2047 52.518 73.69C52.2406 74.1753 52.0413 74.704 51.92 75.276L51.322 74.184C51.634 72.8667 52.1973 71.9133 53.012 71.324C53.844 70.7173 54.7453 70.414 55.716 70.414C56.4613 70.414 57.146 70.5353 57.77 70.778C58.4113 71.0033 58.9746 71.3847 59.46 71.922C59.9453 72.4593 60.3266 73.17 60.604 74.054C60.8986 74.938 61.0546 76.0213 61.072 77.304C61.124 79.2973 60.838 80.9353 60.214 82.218C59.59 83.5007 58.6626 84.3933 57.432 84.896C56.2186 85.3813 54.728 85.4333 52.96 85.052ZM48.15 85L50.074 74.886L48.072 70.57H50.152L51.998 74.964L50.152 85H48.15ZM72.8622 85V75.328C72.8622 74.1493 72.6022 73.326 72.0822 72.858C71.5795 72.39 70.9122 72.156 70.0802 72.156H63.9702V70.57H70.5222C71.3888 70.57 72.1428 70.726 72.7842 71.038C73.4428 71.35 73.9542 71.8613 74.3182 72.572C74.6995 73.2827 74.8902 74.2273 74.8902 75.406V85H72.8622ZM63.9442 85V77.98L64.2302 76.238H65.9722V77.98V85H63.9442ZM85.9686 85L90.9866 72.156H82.9006V70.57H92.9886V72.26L87.9706 85H85.9686ZM82.9006 72.156V66.358H84.7726V72.156H82.9006ZM96.2018 85V73.612L95.8378 70.57H97.8398L98.2038 73.612V85H96.2018ZM104.148 85L109.166 72.156H101.08V70.57H111.168V72.26L106.15 85H104.148ZM101.08 72.156V66.358H102.952V72.156H101.08ZM115.396 85.26L113.81 72.156L115.682 71.142L117.164 83.414C117.874 83.3447 118.559 83.232 119.218 83.076C119.894 82.9027 120.509 82.66 121.064 82.348C121.618 82.0187 122.104 81.6027 122.52 81.1C122.936 80.5973 123.248 79.982 123.456 79.254C123.664 78.5087 123.742 77.6247 123.69 76.602V75.978C123.69 75.25 123.568 74.6 123.326 74.028C123.1 73.456 122.754 73.0053 122.286 72.676C121.818 72.3293 121.246 72.156 120.57 72.156H113.81L113.628 70.57H120.726C122.286 70.57 123.482 71.0553 124.314 72.026C125.163 72.9967 125.614 74.2707 125.666 75.848L125.692 76.654C125.744 78.2313 125.51 79.566 124.99 80.658C124.487 81.7327 123.759 82.5993 122.806 83.258C121.852 83.8993 120.734 84.376 119.452 84.688C118.186 85 116.834 85.1907 115.396 85.26ZM133.347 85.052L133.555 83.466C134.993 83.778 136.155 83.7433 137.039 83.362C137.923 82.9807 138.564 82.2787 138.963 81.256C139.379 80.2333 139.569 78.916 139.535 77.304C139.517 75.9693 139.335 74.9207 138.989 74.158C138.659 73.3953 138.217 72.858 137.663 72.546C137.125 72.2167 136.51 72.052 135.817 72.052C135.106 72.052 134.508 72.208 134.023 72.52C133.555 72.8147 133.182 73.2047 132.905 73.69C132.627 74.1753 132.428 74.704 132.307 75.276L131.709 74.184C132.021 72.8667 132.584 71.9133 133.399 71.324C134.231 70.7173 135.132 70.414 136.103 70.414C136.848 70.414 137.533 70.5353 138.157 70.778C138.798 71.0033 139.361 71.3847 139.847 71.922C140.332 72.4593 140.713 73.17 140.991 74.054C141.285 74.938 141.441 76.0213 141.459 77.304C141.511 79.2973 141.225 80.9353 140.601 82.218C139.977 83.5007 139.049 84.3933 137.819 84.896C136.605 85.3813 135.115 85.4333 133.347 85.052ZM128.537 85L130.461 74.886L128.459 70.57H130.539L132.385 74.964L130.539 85H128.537ZM151.611 85V75.328C151.611 74.1493 151.351 73.326 150.831 72.858C150.328 72.39 149.652 72.156 148.803 72.156H144.123V70.57H149.245C150.112 70.57 150.874 70.726 151.533 71.038C152.192 71.35 152.703 71.8613 153.067 72.572C153.431 73.2827 153.613 74.2273 153.613 75.406V85H151.611ZM144.123 85V83.414H155.459V85H144.123ZM163.716 85V73.612L163.352 70.57H165.354L165.718 73.612V85H163.716ZM169.478 85V83.414H173.742C174.366 83.414 174.947 83.336 175.484 83.18C176.021 83.0067 176.489 82.738 176.888 82.374C177.287 81.9927 177.599 81.49 177.824 80.866C178.067 80.242 178.188 79.4707 178.188 78.552V76.966C178.188 75.926 178.049 75.0507 177.772 74.34C177.512 73.612 177.105 73.066 176.55 72.702C176.013 72.338 175.337 72.156 174.522 72.156H171.792L171.116 75.042C170.908 76.03 170.925 76.7927 171.168 77.33C171.428 77.85 172.052 78.214 173.04 78.422L172.624 79.8C171.601 79.696 170.813 79.436 170.258 79.02C169.721 78.604 169.383 78.0493 169.244 77.356C169.105 76.6627 169.123 75.8393 169.296 74.886L170.31 70.57H174.86C175.969 70.57 176.914 70.8127 177.694 71.298C178.491 71.7833 179.107 72.5027 179.54 73.456C179.973 74.4093 180.19 75.5967 180.19 77.018V78.474C180.19 79.67 180.025 80.684 179.696 81.516C179.384 82.348 178.942 83.024 178.37 83.544C177.815 84.0467 177.165 84.4193 176.42 84.662C175.692 84.8873 174.912 85 174.08 85H169.478ZM191.708 85L183.102 70.57H185.182L193.762 85H191.708ZM182.582 85V83.414H192.462L193.034 85H182.582ZM189.81 78.968L188.692 77.2L191.526 70.57H193.554L189.81 78.968Z" fill="#6A6A6A"/>
</svg>
