<svg width="390" height="231" viewBox="0 0 390 231" fill="none" xmlns="http://www.w3.org/2000/svg">
<path d="M99.9025 62V32.944L99.1985 25.456H108.415L109.183 32.944V62H99.9025ZM121.649 62L133.169 32.432H114.609V25.456H142.449V33.072L130.929 62H121.649ZM114.609 32.432V16.112H122.929V32.432H114.609ZM146.356 62V55.088H156.596C158.303 55.088 159.689 54.704 160.756 53.936C161.823 53.168 162.591 52.1013 163.06 50.736C163.572 49.3707 163.828 47.8347 163.828 46.128V41.328C163.828 39.6213 163.572 38.1067 163.06 36.784C162.591 35.4187 161.823 34.352 160.756 33.584C159.689 32.816 158.303 32.432 156.596 32.432H146.356V25.456H159.092C162.207 25.456 164.788 26.1387 166.836 27.504C168.927 28.8693 170.484 30.7893 171.508 33.264C172.575 35.696 173.108 38.5547 173.108 41.84V45.616C173.108 48.944 172.575 51.8453 171.508 54.32C170.484 56.752 168.927 58.6507 166.836 60.016C164.788 61.3387 162.207 62 159.092 62H146.356ZM179.403 62V32.944L178.699 25.456H187.915L188.683 32.944V62H179.403ZM194.045 63.088L193.213 56.816C194.877 56.6027 196.114 56.2827 196.925 55.856C197.736 55.3867 198.269 54.704 198.525 53.808C198.824 52.912 198.973 51.76 198.973 50.352V25.456H218.365C220.498 25.456 222.376 25.8613 223.997 26.672C225.661 27.4827 226.962 28.7627 227.901 30.512C228.882 32.2613 229.373 34.5867 229.373 37.488V62H220.093V37.04C220.093 35.376 219.709 34.2027 218.941 33.52C218.216 32.7947 217.17 32.432 215.805 32.432H208.253V49.136C208.253 52.4213 207.741 55.024 206.717 56.944C205.736 58.864 204.2 60.2933 202.109 61.232C200.018 62.1707 197.33 62.7893 194.045 63.088ZM249.403 62V32.944L248.699 25.456H257.915L258.683 32.944V62H249.403ZM265.965 48.56V42.928V32.944L265.261 25.456H274.477L275.245 32.944V42.928L275.181 46.96L265.965 48.56ZM286.048 62.64L281.248 25.456H290.016L293.536 55.024C296.736 54.8107 299.424 54.2347 301.6 53.296C303.776 52.3147 305.504 51.0347 306.784 49.456C308.106 47.8773 309.045 46 309.6 43.824C310.154 41.648 310.432 39.2587 310.432 36.656L310.304 25.456H319.584L319.648 36.208C319.69 42.096 318.538 47.0453 316.192 51.056C313.845 55.024 310.197 57.9893 305.248 59.952C300.298 61.9147 293.898 62.8107 286.048 62.64ZM291.36 48.048L289.184 42.288C291.146 41.776 292.618 41.0507 293.6 40.112C294.624 39.1307 295.306 37.808 295.648 36.144C295.989 34.48 296.16 32.3467 296.16 29.744V25.52H304.928V29.552C304.885 32.5813 304.458 35.312 303.648 37.744C302.88 40.1333 301.514 42.1813 299.552 43.888C297.632 45.5947 294.901 46.9813 291.36 48.048ZM323.919 62V55.088H334.159C335.865 55.088 337.252 54.704 338.319 53.936C339.385 53.168 340.153 52.1013 340.623 50.736C341.135 49.3707 341.391 47.8347 341.391 46.128V41.328C341.391 39.6213 341.135 38.1067 340.623 36.784C340.153 35.4187 339.385 34.352 338.319 33.584C337.252 32.816 335.865 32.432 334.159 32.432H323.919V25.456H336.655C339.769 25.456 342.351 26.1387 344.399 27.504C346.489 28.8693 348.047 30.7893 349.071 33.264C350.137 35.696 350.671 38.5547 350.671 41.84V45.616C350.671 48.944 350.137 51.8453 349.071 54.32C348.047 56.752 346.489 58.6507 344.399 60.016C342.351 61.3387 339.769 62 336.655 62H323.919ZM354.853 64.496L353.573 57.264L368.485 54.448C370.576 54.064 372.24 53.424 373.477 52.528C374.757 51.5893 375.717 50.3733 376.357 48.88C376.997 47.344 377.445 45.488 377.701 43.312C377.957 41.0933 378.085 38.512 378.085 35.568C378.128 32.624 378.149 29.2533 378.149 25.456H387.301C387.301 29.6373 387.216 33.456 387.045 36.912C386.917 40.3253 386.554 43.4187 385.957 46.192C385.402 48.9227 384.464 51.3333 383.141 53.424C381.818 55.472 379.984 57.2 377.637 58.608C375.29 60.016 372.282 61.0827 368.613 61.808L354.853 64.496ZM364.005 56.24L356.389 25.456H365.669L372.837 56.24H364.005ZM94.0865 139L105.607 109.432H87.0465V102.456H114.887V110.072L103.367 139H94.0865ZM87.0465 109.432V93.112H95.3665V109.432H87.0465ZM120.778 139V109.944L120.074 102.456H129.29L130.058 109.944V139H120.778ZM142.524 139L154.044 109.432H135.484V102.456H163.324V110.072L151.804 139H142.524ZM135.484 109.432V93.112H143.804V109.432H135.484ZM172.287 139.64L168.767 109.432L177.599 105.272L180.415 131.448C182.25 131.277 183.828 131 185.151 130.616C186.516 130.189 187.647 129.613 188.543 128.888C189.439 128.12 190.122 127.224 190.591 126.2C191.103 125.133 191.466 123.896 191.679 122.488C191.892 121.08 191.956 119.48 191.871 117.688V115.768C191.871 114.445 191.658 113.336 191.231 112.44C190.847 111.501 190.271 110.776 189.503 110.264C188.778 109.709 187.903 109.432 186.879 109.432H168.767L167.935 102.456H187.583C191.807 102.456 195.05 103.651 197.311 106.04C199.615 108.429 200.831 111.672 200.959 115.768L201.023 117.88C201.151 121.848 200.554 125.197 199.231 127.928C197.951 130.616 196.031 132.792 193.471 134.456C190.954 136.12 187.903 137.379 184.319 138.232C180.735 139.043 176.724 139.512 172.287 139.64ZM221.085 139.064L221.917 132.152C225.074 132.835 227.528 132.813 229.277 132.088C231.026 131.32 232.242 129.933 232.925 127.928C233.65 125.923 233.992 123.427 233.949 120.44C233.906 117.752 233.608 115.576 233.053 113.912C232.498 112.248 231.709 111.053 230.685 110.328C229.661 109.56 228.36 109.176 226.781 109.176C225.629 109.176 224.584 109.411 223.645 109.88C222.706 110.349 221.938 111.032 221.341 111.928C220.744 112.824 220.36 113.891 220.189 115.128L218.077 111.16C218.93 107.917 220.317 105.571 222.237 104.12C224.2 102.627 226.354 101.88 228.701 101.88C230.962 101.88 232.946 102.264 234.653 103.032C236.402 103.757 237.874 104.888 239.069 106.424C240.264 107.96 241.16 109.901 241.757 112.248C242.397 114.595 242.717 117.325 242.717 120.44C242.76 125.133 241.928 129.059 240.221 132.216C238.557 135.373 236.104 137.592 232.861 138.872C229.618 140.109 225.693 140.173 221.085 139.064ZM207.005 139L211.485 114.36L206.365 102.456H215.965L220.253 114.808L216.285 139H207.005ZM276.56 139V114.04C276.56 112.376 276.176 111.203 275.408 110.52C274.683 109.795 273.637 109.432 272.272 109.432H259.728V102.456H274.768C276.901 102.456 278.8 102.861 280.464 103.672C282.128 104.483 283.429 105.763 284.368 107.512C285.349 109.261 285.84 111.587 285.84 114.488V139H276.56ZM293.09 139V109.944L292.386 102.456H301.602L302.37 109.944V139H293.09ZM329.045 139L308.373 102.456H317.717L338.325 139H329.045ZM307.733 139V132.088H333.333L335.957 139H307.733ZM329.621 124.664L324.373 116.792L330.133 102.456H339.285L329.621 124.664ZM345.403 125.56V119.928V109.944L344.699 102.456H353.915L354.683 109.944V119.928L354.619 123.96L345.403 125.56ZM367.149 139L378.669 109.432H360.109V102.456H387.949V110.072L376.429 139H367.149ZM360.109 109.432V93.112H368.429V109.432H360.109ZM198.033 216V191.04C198.033 189.376 197.649 188.203 196.881 187.52C196.156 186.795 195.11 186.432 193.745 186.432H181.841V179.456H196.241C198.374 179.456 200.273 179.861 201.937 180.672C203.601 181.483 204.902 182.763 205.841 184.512C206.822 186.261 207.313 188.587 207.313 191.488V210.048V216H198.033ZM177.937 216V209.088H203.985L203.793 216H177.937ZM175.953 216V185.088V179.456H185.233V185.6V216H175.953ZM212.356 216V209.088H222.596C224.303 209.088 225.689 208.704 226.756 207.936C227.823 207.168 228.591 206.101 229.06 204.736C229.572 203.371 229.828 201.835 229.828 200.128V195.328C229.828 193.621 229.572 192.107 229.06 190.784C228.591 189.419 227.823 188.352 226.756 187.584C225.689 186.816 224.303 186.432 222.596 186.432H212.356V179.456H225.092C228.207 179.456 230.788 180.139 232.836 181.504C234.927 182.869 236.484 184.789 237.508 187.264C238.575 189.696 239.108 192.555 239.108 195.84V199.616C239.108 202.944 238.575 205.845 237.508 208.32C236.484 210.752 234.927 212.651 232.836 214.016C230.788 215.339 228.207 216 225.092 216H212.356ZM258.523 216.064L259.355 209.152C262.512 209.835 264.965 209.813 266.715 209.088C268.464 208.32 269.68 206.933 270.363 204.928C271.088 202.923 271.429 200.427 271.387 197.44C271.344 194.752 271.045 192.576 270.491 190.912C269.936 189.248 269.147 188.053 268.123 187.328C267.099 186.56 265.797 186.176 264.219 186.176C263.067 186.176 262.021 186.411 261.083 186.88C260.144 187.349 259.376 188.032 258.779 188.928C258.181 189.824 257.797 190.891 257.627 192.128L255.515 188.16C256.368 184.917 257.755 182.571 259.675 181.12C261.637 179.627 263.792 178.88 266.139 178.88C268.4 178.88 270.384 179.264 272.091 180.032C273.84 180.757 275.312 181.888 276.507 183.424C277.701 184.96 278.597 186.901 279.194 189.248C279.835 191.595 280.155 194.325 280.155 197.44C280.197 202.133 279.365 206.059 277.659 209.216C275.995 212.373 273.541 214.592 270.299 215.872C267.056 217.109 263.131 217.173 258.523 216.064ZM244.443 216L248.923 191.36L243.803 179.456H253.403L257.691 191.808L253.723 216H244.443ZM305.857 216L285.185 179.456H294.529L315.137 216H305.857ZM284.545 216V209.088H310.145L312.769 216H284.545ZM306.433 201.664L301.185 193.792L306.945 179.456H316.097L306.433 201.664ZM320.103 218.496L318.823 211.264L333.735 208.448C335.826 208.064 337.49 207.424 338.727 206.528C340.007 205.589 340.967 204.373 341.607 202.88C342.247 201.344 342.695 199.488 342.951 197.312C343.207 195.093 343.335 192.512 343.335 189.568C343.378 186.624 343.399 183.253 343.399 179.456H352.551C352.551 183.637 352.466 187.456 352.295 190.912C352.167 194.325 351.804 197.419 351.207 200.192C350.652 202.923 349.714 205.333 348.391 207.424C347.068 209.472 345.234 211.2 342.887 212.608C340.54 214.016 337.532 215.083 333.863 215.808L320.103 218.496ZM329.255 210.24L321.639 179.456H330.919L338.087 210.24H329.255ZM374.578 216V191.04C374.578 189.376 374.194 188.203 373.426 187.52C372.658 186.795 371.591 186.432 370.226 186.432H357.618V179.456H372.786C374.919 179.456 376.818 179.861 378.482 180.672C380.146 181.483 381.447 182.763 382.386 184.512C383.325 186.261 383.794 188.587 383.794 191.488V216H374.578ZM357.618 216V209.088H388.082V216H357.618Z" fill="#946AB3"/>
<rect x="156" y="203" width="13" height="13" rx="1" fill="#8FCB9C"/>
</svg>
